<svg version="1.1" xmlns="http://www.w3.org/2000/svg" viewBox="0 0 588 588"  preserveAspectRatio="xMinYMin meet"><rect width="100%" height="100%" fill="white" cx="0" cy="0"/><path d="M4,4l20,0 0,20 -20,0 0,-20z M24,4l20,0 0,20 -20,0 0,-20z M44,4l20,0 0,20 -20,0 0,-20z M64,4l20,0 0,20 -20,0 0,-20z M84,4l20,0 0,20 -20,0 0,-20z M104,4l20,0 0,20 -20,0 0,-20z M124,4l20,0 0,20 -20,0 0,-20z M184,4l20,0 0,20 -20,0 0,-20z M204,4l20,0 0,20 -20,0 0,-20z M244,4l20,0 0,20 -20,0 0,-20z M284,4l20,0 0,20 -20,0 0,-20z M344,4l20,0 0,20 -20,0 0,-20z M364,4l20,0 0,20 -20,0 0,-20z M384,4l20,0 0,20 -20,0 0,-20z M444,4l20,0 0,20 -20,0 0,-20z M464,4l20,0 0,20 -20,0 0,-20z M484,4l20,0 0,20 -20,0 0,-20z M504,4l20,0 0,20 -20,0 0,-20z M524,4l20,0 0,20 -20,0 0,-20z M544,4l20,0 0,20 -20,0 0,-20z M564,4l20,0 0,20 -20,0 0,-20z M4,24l20,0 0,20 -20,0 0,-20z M124,24l20,0 0,20 -20,0 0,-20z M164,24l20,0 0,20 -20,0 0,-20z M184,24l20,0 0,20 -20,0 0,-20z M224,24l20,0 0,20 -20,0 0,-20z M284,24l20,0 0,20 -20,0 0,-20z M324,24l20,0 0,20 -20,0 0,-20z M344,24l20,0 0,20 -20,0 0,-20z M404,24l20,0 0,20 -20,0 0,-20z M444,24l20,0 0,20 -20,0 0,-20z M564,24l20,0 0,20 -20,0 0,-20z M4,44l20,0 0,20 -20,0 0,-20z M44,44l20,0 0,20 -20,0 0,-20z M64,44l20,0 0,20 -20,0 0,-20z M84,44l20,0 0,20 -20,0 0,-20z M124,44l20,0 0,20 -20,0 0,-20z M184,44l20,0 0,20 -20,0 0,-20z M204,44l20,0 0,20 -20,0 0,-20z M264,44l20,0 0,20 -20,0 0,-20z M284,44l20,0 0,20 -20,0 0,-20z M324,44l20,0 0,20 -20,0 0,-20z M344,44l20,0 0,20 -20,0 0,-20z M384,44l20,0 0,20 -20,0 0,-20z M404,44l20,0 0,20 -20,0 0,-20z M444,44l20,0 0,20 -20,0 0,-20z M484,44l20,0 0,20 -20,0 0,-20z M504,44l20,0 0,20 -20,0 0,-20z M524,44l20,0 0,20 -20,0 0,-20z M564,44l20,0 0,20 -20,0 0,-20z M4,64l20,0 0,20 -20,0 0,-20z M44,64l20,0 0,20 -20,0 0,-20z M64,64l20,0 0,20 -20,0 0,-20z M84,64l20,0 0,20 -20,0 0,-20z M124,64l20,0 0,20 -20,0 0,-20z M224,64l20,0 0,20 -20,0 0,-20z M264,64l20,0 0,20 -20,0 0,-20z M284,64l20,0 0,20 -20,0 0,-20z M304,64l20,0 0,20 -20,0 0,-20z M324,64l20,0 0,20 -20,0 0,-20z M364,64l20,0 0,20 -20,0 0,-20z M384,64l20,0 0,20 -20,0 0,-20z M444,64l20,0 0,20 -20,0 0,-20z M484,64l20,0 0,20 -20,0 0,-20z M504,64l20,0 0,20 -20,0 0,-20z M524,64l20,0 0,20 -20,0 0,-20z M564,64l20,0 0,20 -20,0 0,-20z M4,84l20,0 0,20 -20,0 0,-20z M44,84l20,0 0,20 -20,0 0,-20z M64,84l20,0 0,20 -20,0 0,-20z M84,84l20,0 0,20 -20,0 0,-20z M124,84l20,0 0,20 -20,0 0,-20z M184,84l20,0 0,20 -20,0 0,-20z M204,84l20,0 0,20 -20,0 0,-20z M224,84l20,0 0,20 -20,0 0,-20z M244,84l20,0 0,20 -20,0 0,-20z M284,84l20,0 0,20 -20,0 0,-20z M304,84l20,0 0,20 -20,0 0,-20z M444,84l20,0 0,20 -20,0 0,-20z M484,84l20,0 0,20 -20,0 0,-20z M504,84l20,0 0,20 -20,0 0,-20z M524,84l20,0 0,20 -20,0 0,-20z M564,84l20,0 0,20 -20,0 0,-20z M4,104l20,0 0,20 -20,0 0,-20z M124,104l20,0 0,20 -20,0 0,-20z M164,104l20,0 0,20 -20,0 0,-20z M184,104l20,0 0,20 -20,0 0,-20z M304,104l20,0 0,20 -20,0 0,-20z M324,104l20,0 0,20 -20,0 0,-20z M364,104l20,0 0,20 -20,0 0,-20z M384,104l20,0 0,20 -20,0 0,-20z M444,104l20,0 0,20 -20,0 0,-20z M564,104l20,0 0,20 -20,0 0,-20z M4,124l20,0 0,20 -20,0 0,-20z M24,124l20,0 0,20 -20,0 0,-20z M44,124l20,0 0,20 -20,0 0,-20z M64,124l20,0 0,20 -20,0 0,-20z M84,124l20,0 0,20 -20,0 0,-20z M104,124l20,0 0,20 -20,0 0,-20z M124,124l20,0 0,20 -20,0 0,-20z M164,124l20,0 0,20 -20,0 0,-20z M204,124l20,0 0,20 -20,0 0,-20z M244,124l20,0 0,20 -20,0 0,-20z M284,124l20,0 0,20 -20,0 0,-20z M324,124l20,0 0,20 -20,0 0,-20z M364,124l20,0 0,20 -20,0 0,-20z M404,124l20,0 0,20 -20,0 0,-20z M444,124l20,0 0,20 -20,0 0,-20z M464,124l20,0 0,20 -20,0 0,-20z M484,124l20,0 0,20 -20,0 0,-20z M504,124l20,0 0,20 -20,0 0,-20z M524,124l20,0 0,20 -20,0 0,-20z M544,124l20,0 0,20 -20,0 0,-20z M564,124l20,0 0,20 -20,0 0,-20z M164,144l20,0 0,20 -20,0 0,-20z M224,144l20,0 0,20 -20,0 0,-20z M244,144l20,0 0,20 -20,0 0,-20z M324,144l20,0 0,20 -20,0 0,-20z M344,144l20,0 0,20 -20,0 0,-20z M364,144l20,0 0,20 -20,0 0,-20z M84,164l20,0 0,20 -20,0 0,-20z M104,164l20,0 0,20 -20,0 0,-20z M124,164l20,0 0,20 -20,0 0,-20z M144,164l20,0 0,20 -20,0 0,-20z M224,164l20,0 0,20 -20,0 0,-20z M304,164l20,0 0,20 -20,0 0,-20z M364,164l20,0 0,20 -20,0 0,-20z M384,164l20,0 0,20 -20,0 0,-20z M404,164l20,0 0,20 -20,0 0,-20z M444,164l20,0 0,20 -20,0 0,-20z M464,164l20,0 0,20 -20,0 0,-20z M544,164l20,0 0,20 -20,0 0,-20z M4,184l20,0 0,20 -20,0 0,-20z M144,184l20,0 0,20 -20,0 0,-20z M204,184l20,0 0,20 -20,0 0,-20z M224,184l20,0 0,20 -20,0 0,-20z M244,184l20,0 0,20 -20,0 0,-20z M264,184l20,0 0,20 -20,0 0,-20z M284,184l20,0 0,20 -20,0 0,-20z M304,184l20,0 0,20 -20,0 0,-20z M324,184l20,0 0,20 -20,0 0,-20z M344,184l20,0 0,20 -20,0 0,-20z M384,184l20,0 0,20 -20,0 0,-20z M404,184l20,0 0,20 -20,0 0,-20z M444,184l20,0 0,20 -20,0 0,-20z M484,184l20,0 0,20 -20,0 0,-20z M504,184l20,0 0,20 -20,0 0,-20z M524,184l20,0 0,20 -20,0 0,-20z M544,184l20,0 0,20 -20,0 0,-20z M564,184l20,0 0,20 -20,0 0,-20z M44,204l20,0 0,20 -20,0 0,-20z M104,204l20,0 0,20 -20,0 0,-20z M124,204l20,0 0,20 -20,0 0,-20z M144,204l20,0 0,20 -20,0 0,-20z M184,204l20,0 0,20 -20,0 0,-20z M244,204l20,0 0,20 -20,0 0,-20z M344,204l20,0 0,20 -20,0 0,-20z M364,204l20,0 0,20 -20,0 0,-20z M424,204l20,0 0,20 -20,0 0,-20z M504,204l20,0 0,20 -20,0 0,-20z M564,204l20,0 0,20 -20,0 0,-20z M64,224l20,0 0,20 -20,0 0,-20z M84,224l20,0 0,20 -20,0 0,-20z M104,224l20,0 0,20 -20,0 0,-20z M164,224l20,0 0,20 -20,0 0,-20z M184,224l20,0 0,20 -20,0 0,-20z M204,224l20,0 0,20 -20,0 0,-20z M224,224l20,0 0,20 -20,0 0,-20z M264,224l20,0 0,20 -20,0 0,-20z M284,224l20,0 0,20 -20,0 0,-20z M364,224l20,0 0,20 -20,0 0,-20z M424,224l20,0 0,20 -20,0 0,-20z M504,224l20,0 0,20 -20,0 0,-20z M544,224l20,0 0,20 -20,0 0,-20z M564,224l20,0 0,20 -20,0 0,-20z M124,244l20,0 0,20 -20,0 0,-20z M144,244l20,0 0,20 -20,0 0,-20z M184,244l20,0 0,20 -20,0 0,-20z M204,244l20,0 0,20 -20,0 0,-20z M264,244l20,0 0,20 -20,0 0,-20z M304,244l20,0 0,20 -20,0 0,-20z M364,244l20,0 0,20 -20,0 0,-20z M384,244l20,0 0,20 -20,0 0,-20z M404,244l20,0 0,20 -20,0 0,-20z M464,244l20,0 0,20 -20,0 0,-20z M504,244l20,0 0,20 -20,0 0,-20z M564,244l20,0 0,20 -20,0 0,-20z M4,264l20,0 0,20 -20,0 0,-20z M24,264l20,0 0,20 -20,0 0,-20z M144,264l20,0 0,20 -20,0 0,-20z M204,264l20,0 0,20 -20,0 0,-20z M344,264l20,0 0,20 -20,0 0,-20z M444,264l20,0 0,20 -20,0 0,-20z M484,264l20,0 0,20 -20,0 0,-20z M524,264l20,0 0,20 -20,0 0,-20z M564,264l20,0 0,20 -20,0 0,-20z M24,284l20,0 0,20 -20,0 0,-20z M44,284l20,0 0,20 -20,0 0,-20z M64,284l20,0 0,20 -20,0 0,-20z M104,284l20,0 0,20 -20,0 0,-20z M124,284l20,0 0,20 -20,0 0,-20z M164,284l20,0 0,20 -20,0 0,-20z M204,284l20,0 0,20 -20,0 0,-20z M244,284l20,0 0,20 -20,0 0,-20z M264,284l20,0 0,20 -20,0 0,-20z M344,284l20,0 0,20 -20,0 0,-20z M364,284l20,0 0,20 -20,0 0,-20z M404,284l20,0 0,20 -20,0 0,-20z M484,284l20,0 0,20 -20,0 0,-20z M564,284l20,0 0,20 -20,0 0,-20z M4,304l20,0 0,20 -20,0 0,-20z M104,304l20,0 0,20 -20,0 0,-20z M144,304l20,0 0,20 -20,0 0,-20z M164,304l20,0 0,20 -20,0 0,-20z M264,304l20,0 0,20 -20,0 0,-20z M284,304l20,0 0,20 -20,0 0,-20z M324,304l20,0 0,20 -20,0 0,-20z M344,304l20,0 0,20 -20,0 0,-20z M364,304l20,0 0,20 -20,0 0,-20z M424,304l20,0 0,20 -20,0 0,-20z M464,304l20,0 0,20 -20,0 0,-20z M504,304l20,0 0,20 -20,0 0,-20z M544,304l20,0 0,20 -20,0 0,-20z M564,304l20,0 0,20 -20,0 0,-20z M4,324l20,0 0,20 -20,0 0,-20z M44,324l20,0 0,20 -20,0 0,-20z M124,324l20,0 0,20 -20,0 0,-20z M184,324l20,0 0,20 -20,0 0,-20z M204,324l20,0 0,20 -20,0 0,-20z M264,324l20,0 0,20 -20,0 0,-20z M284,324l20,0 0,20 -20,0 0,-20z M424,324l20,0 0,20 -20,0 0,-20z M464,324l20,0 0,20 -20,0 0,-20z M564,324l20,0 0,20 -20,0 0,-20z M4,344l20,0 0,20 -20,0 0,-20z M24,344l20,0 0,20 -20,0 0,-20z M44,344l20,0 0,20 -20,0 0,-20z M164,344l20,0 0,20 -20,0 0,-20z M184,344l20,0 0,20 -20,0 0,-20z M204,344l20,0 0,20 -20,0 0,-20z M224,344l20,0 0,20 -20,0 0,-20z M244,344l20,0 0,20 -20,0 0,-20z M304,344l20,0 0,20 -20,0 0,-20z M364,344l20,0 0,20 -20,0 0,-20z M424,344l20,0 0,20 -20,0 0,-20z M444,344l20,0 0,20 -20,0 0,-20z M484,344l20,0 0,20 -20,0 0,-20z M564,344l20,0 0,20 -20,0 0,-20z M64,364l20,0 0,20 -20,0 0,-20z M104,364l20,0 0,20 -20,0 0,-20z M124,364l20,0 0,20 -20,0 0,-20z M144,364l20,0 0,20 -20,0 0,-20z M164,364l20,0 0,20 -20,0 0,-20z M204,364l20,0 0,20 -20,0 0,-20z M224,364l20,0 0,20 -20,0 0,-20z M284,364l20,0 0,20 -20,0 0,-20z M344,364l20,0 0,20 -20,0 0,-20z M364,364l20,0 0,20 -20,0 0,-20z M404,364l20,0 0,20 -20,0 0,-20z M464,364l20,0 0,20 -20,0 0,-20z M484,364l20,0 0,20 -20,0 0,-20z M504,364l20,0 0,20 -20,0 0,-20z M524,364l20,0 0,20 -20,0 0,-20z M564,364l20,0 0,20 -20,0 0,-20z M64,384l20,0 0,20 -20,0 0,-20z M104,384l20,0 0,20 -20,0 0,-20z M164,384l20,0 0,20 -20,0 0,-20z M184,384l20,0 0,20 -20,0 0,-20z M244,384l20,0 0,20 -20,0 0,-20z M264,384l20,0 0,20 -20,0 0,-20z M344,384l20,0 0,20 -20,0 0,-20z M364,384l20,0 0,20 -20,0 0,-20z M384,384l20,0 0,20 -20,0 0,-20z M404,384l20,0 0,20 -20,0 0,-20z M544,384l20,0 0,20 -20,0 0,-20z M4,404l20,0 0,20 -20,0 0,-20z M24,404l20,0 0,20 -20,0 0,-20z M64,404l20,0 0,20 -20,0 0,-20z M104,404l20,0 0,20 -20,0 0,-20z M124,404l20,0 0,20 -20,0 0,-20z M184,404l20,0 0,20 -20,0 0,-20z M204,404l20,0 0,20 -20,0 0,-20z M264,404l20,0 0,20 -20,0 0,-20z M364,404l20,0 0,20 -20,0 0,-20z M404,404l20,0 0,20 -20,0 0,-20z M424,404l20,0 0,20 -20,0 0,-20z M444,404l20,0 0,20 -20,0 0,-20z M464,404l20,0 0,20 -20,0 0,-20z M484,404l20,0 0,20 -20,0 0,-20z M544,404l20,0 0,20 -20,0 0,-20z M164,424l20,0 0,20 -20,0 0,-20z M244,424l20,0 0,20 -20,0 0,-20z M324,424l20,0 0,20 -20,0 0,-20z M364,424l20,0 0,20 -20,0 0,-20z M404,424l20,0 0,20 -20,0 0,-20z M484,424l20,0 0,20 -20,0 0,-20z M524,424l20,0 0,20 -20,0 0,-20z M564,424l20,0 0,20 -20,0 0,-20z M4,444l20,0 0,20 -20,0 0,-20z M24,444l20,0 0,20 -20,0 0,-20z M44,444l20,0 0,20 -20,0 0,-20z M64,444l20,0 0,20 -20,0 0,-20z M84,444l20,0 0,20 -20,0 0,-20z M104,444l20,0 0,20 -20,0 0,-20z M124,444l20,0 0,20 -20,0 0,-20z M164,444l20,0 0,20 -20,0 0,-20z M184,444l20,0 0,20 -20,0 0,-20z M204,444l20,0 0,20 -20,0 0,-20z M264,444l20,0 0,20 -20,0 0,-20z M364,444l20,0 0,20 -20,0 0,-20z M384,444l20,0 0,20 -20,0 0,-20z M404,444l20,0 0,20 -20,0 0,-20z M444,444l20,0 0,20 -20,0 0,-20z M484,444l20,0 0,20 -20,0 0,-20z M564,444l20,0 0,20 -20,0 0,-20z M4,464l20,0 0,20 -20,0 0,-20z M124,464l20,0 0,20 -20,0 0,-20z M164,464l20,0 0,20 -20,0 0,-20z M184,464l20,0 0,20 -20,0 0,-20z M204,464l20,0 0,20 -20,0 0,-20z M224,464l20,0 0,20 -20,0 0,-20z M264,464l20,0 0,20 -20,0 0,-20z M344,464l20,0 0,20 -20,0 0,-20z M364,464l20,0 0,20 -20,0 0,-20z M384,464l20,0 0,20 -20,0 0,-20z M404,464l20,0 0,20 -20,0 0,-20z M484,464l20,0 0,20 -20,0 0,-20z M504,464l20,0 0,20 -20,0 0,-20z M544,464l20,0 0,20 -20,0 0,-20z M4,484l20,0 0,20 -20,0 0,-20z M44,484l20,0 0,20 -20,0 0,-20z M64,484l20,0 0,20 -20,0 0,-20z M84,484l20,0 0,20 -20,0 0,-20z M124,484l20,0 0,20 -20,0 0,-20z M164,484l20,0 0,20 -20,0 0,-20z M204,484l20,0 0,20 -20,0 0,-20z M244,484l20,0 0,20 -20,0 0,-20z M264,484l20,0 0,20 -20,0 0,-20z M364,484l20,0 0,20 -20,0 0,-20z M384,484l20,0 0,20 -20,0 0,-20z M404,484l20,0 0,20 -20,0 0,-20z M424,484l20,0 0,20 -20,0 0,-20z M444,484l20,0 0,20 -20,0 0,-20z M464,484l20,0 0,20 -20,0 0,-20z M484,484l20,0 0,20 -20,0 0,-20z M564,484l20,0 0,20 -20,0 0,-20z M4,504l20,0 0,20 -20,0 0,-20z M44,504l20,0 0,20 -20,0 0,-20z M64,504l20,0 0,20 -20,0 0,-20z M84,504l20,0 0,20 -20,0 0,-20z M124,504l20,0 0,20 -20,0 0,-20z M204,504l20,0 0,20 -20,0 0,-20z M244,504l20,0 0,20 -20,0 0,-20z M264,504l20,0 0,20 -20,0 0,-20z M324,504l20,0 0,20 -20,0 0,-20z M364,504l20,0 0,20 -20,0 0,-20z M464,504l20,0 0,20 -20,0 0,-20z M504,504l20,0 0,20 -20,0 0,-20z M524,504l20,0 0,20 -20,0 0,-20z M544,504l20,0 0,20 -20,0 0,-20z M4,524l20,0 0,20 -20,0 0,-20z M44,524l20,0 0,20 -20,0 0,-20z M64,524l20,0 0,20 -20,0 0,-20z M84,524l20,0 0,20 -20,0 0,-20z M124,524l20,0 0,20 -20,0 0,-20z M184,524l20,0 0,20 -20,0 0,-20z M204,524l20,0 0,20 -20,0 0,-20z M324,524l20,0 0,20 -20,0 0,-20z M344,524l20,0 0,20 -20,0 0,-20z M364,524l20,0 0,20 -20,0 0,-20z M384,524l20,0 0,20 -20,0 0,-20z M404,524l20,0 0,20 -20,0 0,-20z M424,524l20,0 0,20 -20,0 0,-20z M504,524l20,0 0,20 -20,0 0,-20z M524,524l20,0 0,20 -20,0 0,-20z M544,524l20,0 0,20 -20,0 0,-20z M564,524l20,0 0,20 -20,0 0,-20z M4,544l20,0 0,20 -20,0 0,-20z M124,544l20,0 0,20 -20,0 0,-20z M244,544l20,0 0,20 -20,0 0,-20z M264,544l20,0 0,20 -20,0 0,-20z M304,544l20,0 0,20 -20,0 0,-20z M364,544l20,0 0,20 -20,0 0,-20z M404,544l20,0 0,20 -20,0 0,-20z M444,544l20,0 0,20 -20,0 0,-20z M464,544l20,0 0,20 -20,0 0,-20z M544,544l20,0 0,20 -20,0 0,-20z M564,544l20,0 0,20 -20,0 0,-20z M4,564l20,0 0,20 -20,0 0,-20z M24,564l20,0 0,20 -20,0 0,-20z M44,564l20,0 0,20 -20,0 0,-20z M64,564l20,0 0,20 -20,0 0,-20z M84,564l20,0 0,20 -20,0 0,-20z M104,564l20,0 0,20 -20,0 0,-20z M124,564l20,0 0,20 -20,0 0,-20z M204,564l20,0 0,20 -20,0 0,-20z M244,564l20,0 0,20 -20,0 0,-20z M304,564l20,0 0,20 -20,0 0,-20z M344,564l20,0 0,20 -20,0 0,-20z M364,564l20,0 0,20 -20,0 0,-20z M404,564l20,0 0,20 -20,0 0,-20z M484,564l20,0 0,20 -20,0 0,-20z M544,564l20,0 0,20 -20,0 0,-20z " stroke="transparent" fill="black"/></svg>